<svg xmlns="http://www.w3.org/2000/svg" width="121" height="37" fill="none" viewBox="0 0 121 37"><path fill="currentColor" d="m12.886 35.492.017.008-.015-.006zm-.249-.133.17.093-.287-.159zM13.5 1.714q.243.001.374.055 1.705.658 11.812 4.576l.127.051c.281.116.444.207.514.27q.285.257.414.643c.032.096.055.305.057.65v.157q-.008.672 0 9.486c.001 1.131-.025 1.912-.078 2.351-.568 4.76-3.736 8.702-7.248 11.632a33.4 33.4 0 0 1-5.368 3.678l-.035.018a1.2 1.2 0 0 1-.565.134q-.323 0-.6-.152a33.4 33.4 0 0 1-5.369-3.677C4.076 28.703.951 24.839.312 20.179l-.029-.223c-.052-.44-.08-1.22-.079-2.351q.006-7.712.001-9.19l-.001-.296c-.005-.44.02-.697.056-.807a1.47 1.47 0 0 1 .413-.643c.08-.072.282-.181.642-.32L9.32 3.242q2.952-1.145 3.805-1.474c.088-.034.21-.055.373-.055m.096 2.8a.25.25 0 0 0-.185 0L2.95 8.572a.24.24 0 0 0-.1.074l-.012.015a.25.25 0 0 0-.042.139l.002 6.037v1.984l-.002 1.292q-.003 1.011.055 1.506c.4 3.38 2.49 6.3 4.804 8.531l.002.002.002.002a.22.22 0 0 0 .202.048.22.22 0 0 0 .152-.161q1.37-5.664 4.992-10.324l.005-.006.004-.006a.23.23 0 0 0 .038-.11v-.034a.2.2 0 0 0-.03-.095l-.008-.014-.01-.014a.2.2 0 0 0-.077-.06l-.016-.007-.015-.006a.2.2 0 0 0-.113 0l-.006.001-.006.002a10.8 10.8 0 0 0-3.69 2.159l-.106.095c-.177.16-.413.326-.628.39a.46.46 0 0 1-.259.012.3.3 0 0 1-.162-.128l-.023-.035a.53.53 0 0 1-.051-.346q.046-.33.16-.57a6.85 6.85 0 0 1 1.849-2.385 4.8 4.8 0 0 1 1.884-.964l.009-.002.008-.003a.2.2 0 0 0 .1-.075.23.23 0 0 0 .015-.246l-.01-.016-.012-.015a.2.2 0 0 0-.087-.062 16.3 16.3 0 0 0-5.45-1.104l-.18-.004c-.227-.004-.466.006-.7.016-.235.01-.466.019-.685.014a2.8 2.8 0 0 1-.606-.07c-.2-.05-.35-.128-.435-.232-.131-.16-.143-.356-.028-.555.119-.207.328-.398.582-.567a5 5 0 0 1 .783-.406c2.704-1.13 6.26-1.18 8.33 1.183q.41.468.75.954a.22.22 0 0 0 .12.089.2.2 0 0 0 .164-.022.22.22 0 0 0 .1-.135.23.23 0 0 0-.011-.152 11.3 11.3 0 0 0-3.079-4.14 1.5 1.5 0 0 1-.391-.497c-.084-.187-.082-.338.024-.464.106-.127.316-.174.62-.133.29.039.597.149.807.235q.91.376 1.698 1.015c.987.8 1.692 1.836 1.805 3.115l.009.125a.24.24 0 0 0 .034.11.23.23 0 0 0 .19.11.2.2 0 0 0 .105-.026q.225-.12.316-.172c.994-.574 2.105-.562 3.157-.194s2.03 1.09 2.731 1.907c.13.152.256.329.33.51.075.18.092.346.034.496v.003l-.002.002v.001a.4.4 0 0 1-.39.175 1.8 1.8 0 0 1-.587-.162l-.084-.041a10.4 10.4 0 0 0-3.441-1.088l-.124-.016h-.006l-.018-.001a.2.2 0 0 0-.104.03l-.015.01a.23.23 0 0 0-.085.12.23.23 0 0 0 .005.147q.028.072.092.113l.004.003.004.002a5.8 5.8 0 0 1 2.126 2.035l.076.125c.777 1.3 1.188 2.837 1.285 4.383.022.35.038.979-.045 1.557a2.8 2.8 0 0 1-.202.76c-.096.209-.212.335-.342.39a.39.39 0 0 1-.335-.003.9.9 0 0 1-.313-.291c-.203-.282-.346-.67-.421-.922a16.5 16.5 0 0 0-1.867-4.096l-.004-.006-.004-.006a.2.2 0 0 0-.09-.072l-.016-.006-.016-.004a.21.21 0 0 0-.21.072l-.01.014a.23.23 0 0 0-.04.128v.014l.002.013c.215 1.732-.3 3.572-1.194 5.051a5 5 0 0 1-.5.696c-.193.218-.398.385-.605.462-.212.078-.418-.01-.512-.233a1.2 1.2 0 0 1-.07-.516c.009-.199.044-.403.084-.573q.723-3 .196-6.078a.2.2 0 0 0-.041-.102l-.012-.014-.012-.014a.2.2 0 0 0-.093-.053l-.017-.004-.018-.002a.2.2 0 0 0-.104.018l-.016.008a.2.2 0 0 0-.08.079c-2.358 3.953-3.45 8.517-2.842 13.15a.28.28 0 0 0 .124.194l1.359.85a.25.25 0 0 0 .263.003c2.407-1.427 4.686-3.18 6.605-5.242 1.908-2.05 3.51-4.587 3.903-7.471.056-.413.08-1.048.074-1.896q-.004-.551-.001-9.08a.25.25 0 0 0-.033-.124l-.01-.015-.01-.015a.24.24 0 0 0-.1-.074zM6.846 31.276q.198.173.396.34l.163.137a31 31 0 0 1-.559-.477M15.403 26l.025-.006.028-.008zm-.676-.344-.013-.03zm-3.943-5.039-.091.157zm3.878 4.064.025-.138v-.004zM.14 20.43l.017.1-.016-.096zm-.08-.634.01.097.009.09-.01-.09zm7.667.175-.014-.026zM.008 18.734l.01.313.01.282a24 24 0 0 1-.02-.595M24 8.798a4232 4232 0 0 0-.001 6.534zm-3.524 7 .123.045-.016-.006zm-1.745-.203-.08-.053zm-7.035-.208-.135.037zm6.992-.055.131.023.113.02zM7.902 14.41a16.2 16.2 0 0 1 3.624.901l.17.065a16.3 16.3 0 0 0-3.618-.943zm-4.323-.447.027.026zm4.447-2.636q-.218.017-.434.044l-.144.019q.288-.04.578-.063m3.389-1.012.12.106zm-.306-.283q.062.069.124.126l.06.053a2 2 0 0 1-.184-.179m-.307-.922a.6.6 0 0 0-.006.397q.014.045.03.088l.019.043a.7.7 0 0 1-.058-.485zm2.105.033-.114-.054zm-1.438-.42a1.2 1.2 0 0 0-.219.023l-.051.012q.127-.034.27-.035M.048 7.303l-.001.002zm26.849-.17.02.052-.037-.092zm-1.011-.937.069.03-.198-.08zM.082 7.192l-.018.05zm.376-.607.003-.003zm77.899 1.069-.939.002a1.8 1.8 0 0 0-1.796 1.803l.002.94a1.8 1.8 0 0 0 1.802 1.796l.94-.001a1.8 1.8 0 0 0 1.796-1.804l-.002-.939a1.8 1.8 0 0 0-1.803-1.797m15.275 18.31c-.946 2.13-2.639 3.207-4.92 3.284-3.697.126-5.945-2.248-6.49-5.772-.632-4.097.296-9.144 5.224-9.91 1.475-.23 3.326-.034 4.555.88.704.523 1.103 1.075 1.519 1.78a.04.04 0 0 0 .041.018.04.04 0 0 0 .028-.035V8.774a.084.084 0 0 1 .084-.084h3.154a.11.11 0 0 1 .109.108v20.027a.107.107 0 0 1-.107.106h-2.676a.1.1 0 0 1-.069-.026.1.1 0 0 1-.034-.066l-.32-2.859a.05.05 0 0 0-.043-.045.05.05 0 0 0-.055.03m-8.034-4.667c-.009 2.572 1.061 4.968 4.011 4.979 2.95.008 4.039-2.379 4.048-4.953s-1.064-4.968-4.014-4.979c-2.95-.01-4.036 2.379-4.045 4.953M60.586 10.257h3.693a.06.06 0 0 1 .053.08l-7.338 18.61a.06.06 0 0 1-.054.038h-3.693a.06.06 0 0 1-.053-.08l7.338-18.61a.06.06 0 0 1 .054-.038m-7.691 9.161h-3.36a.13.13 0 0 1-.125-.108c-.205-1.447-.849-2.726-2.31-3.17-2.47-.753-4.876.455-5.348 3.1q-.385 2.165.14 3.962c.591 2.038 2.533 2.84 4.507 2.566 1.911-.263 2.708-1.569 3.026-3.322a.125.125 0 0 1 .123-.102h3.379a.11.11 0 0 1 .106.076q.008.022.006.045c-.18 2.368-1.188 4.465-3.342 5.527-2.42 1.194-6.177 1.215-8.501-.189q-2.29-1.383-2.914-4.173a12 12 0 0 1-.14-4.449c.604-4.022 3.642-6.185 7.55-6.204 4.018-.021 7.087 2.086 7.315 6.324a.11.11 0 0 1-.068.108.1.1 0 0 1-.044.009m20.625-1.129a.06.06 0 0 1-.033.057l-.023.005h-3.322a.14.14 0 0 1-.133-.094 5 5 0 0 1-.101-.327c-.516-1.875-2.986-1.875-4.46-1.578a.08.08 0 0 1-.091-.064.1.1 0 0 1 .004-.041l1.063-2.697a.15.15 0 0 1 .137-.094c3.398-.055 6.446 1.017 6.958 4.833m29.195 4.476c.23 1.874 1.309 3.28 3.176 3.611 1.798.32 3.736 0 4.513-1.839a.13.13 0 0 1 .125-.082h3.483q.027 0 .051.012.025.013.04.035a.1.1 0 0 1 .02.05.1.1 0 0 1-.004.053q-1.26 3.815-5.182 4.53-2.133.389-4.04.023c-4.392-.84-5.78-4.166-5.61-8.324.13-3.206 1.792-6.052 4.968-6.993a9.43 9.43 0 0 1 5.278-.041c2.751.758 4.424 3.24 4.735 5.934q.165 1.44.077 2.873a.06.06 0 0 1-.019.04.06.06 0 0 1-.042.017h-11.478a.1.1 0 0 0-.038.008.1.1 0 0 0-.03.022.1.1 0 0 0-.019.033q-.006.02-.004.038m.146-2.83h7.931a.1.1 0 0 0 .069-.03.1.1 0 0 0 .019-.034.1.1 0 0 0 .004-.039c-.259-2.682-2.167-3.985-4.774-3.57-1.901.302-3.084 1.729-3.354 3.55a.1.1 0 0 0 .003.046.1.1 0 0 0 .021.04.1.1 0 0 0 .081.037m-23.34-6.118h-3.315a.09.09 0 0 0-.09.09v14.918c0 .05.04.09.09.09h3.315c.05 0 .09-.04.09-.09V13.908a.09.09 0 0 0-.09-.09M63.65 24.046q.413 1.782 1.998 2.177c1.586.396 5.073.518 4.717-2.056-.106-.767-1.32-1.103-2.013-1.224-1.744-.306-3.494-.456-5.119-1.018a.1.1 0 0 1-.056-.051.1.1 0 0 1-.003-.077l1.108-2.81a.06.06 0 0 1 .023-.029q.1-.059.205.064c.242.288 1.412.55 1.659.589q2.76.434 3.434.564c1.186.23 2.583.66 3.373 1.562 1.209 1.382 1.085 3.98-.027 5.402-2.01 2.567-6.304 2.537-9.149 1.713q-1.617-.47-2.639-1.683a.19.19 0 0 1-.032-.19l1.158-2.937a.16.16 0 0 1 .056-.07.15.15 0 0 1 .084-.026h1.098a.13.13 0 0 1 .124.1"/></svg>